<svg width="36" height="36" fill="none" xmlns="http://www.w3.org/2000/svg"><g clip-path="url(#clip0_224_85)"><rect width="36" height="36" rx="5" fill="#CD2026"/><path d="M14.41 20.22a1.115 1.115 0 00-1.213-.233 1.003 1.003 0 00-.6.6 1.112 1.112 0 102.047 0 1.277 1.277 0 00-.234-.366zm8.902 0a1.165 1.165 0 00-1.58 0 1.277 1.277 0 00-.234.368 1.101 1.101 0 00.234 1.213c.108.098.232.177.367.233a1.047 1.047 0 00.845 0c.135-.056.26-.135.368-.233a1.1 1.1 0 00.233-1.213 1.275 1.275 0 00-.233-.367zm2.892 5.125a5.53 5.53 0 001.986-5.36l-1.67-8.902a5.564 5.564 0 00-5.466-4.538h-5.966a5.564 5.564 0 00-5.467 4.538l-1.669 8.902a5.53 5.53 0 001.986 5.36L8.383 26.9a1.112 1.112 0 101.573 1.574l2.08-2.08c.452.118.916.178 1.383.18h9.304a5.567 5.567 0 001.383-.18l2.08 2.08a1.113 1.113 0 001.573-1.574l-1.555-1.555zM11.808 11.494a3.34 3.34 0 013.28-2.723h5.966a3.34 3.34 0 013.28 2.723l.386 2.057a8.851 8.851 0 01-13.298 0l.386-2.057zM25.29 23.143a3.328 3.328 0 01-2.568 1.206h-9.304a3.337 3.337 0 01-3.28-3.953l.79-4.22a11.076 11.076 0 0014.283 0l.791 4.22a3.327 3.327 0 01-.712 2.747z" fill="#fff"/></g><defs><clipPath id="clip0_224_85"><path fill="#fff" d="M0 0h36v36H0z"/></clipPath></defs></svg>