<svg width="36" height="36" viewBox="0 0 36 36" fill="none" xmlns="http://www.w3.org/2000/svg">
<g clip-path="url(#clip0_224_85)">
<rect width="36" height="36" rx="5" fill="#CD2026"/>
<path d="M14.4102 20.2206C14.2536 20.0664 14.0549 19.962 13.8391 19.9204C13.6234 19.8789 13.4001 19.902 13.1975 19.9869C13.0594 20.0369 12.9341 20.1167 12.8302 20.2205C12.7264 20.3243 12.6467 20.4498 12.5966 20.5878C12.5245 20.757 12.4953 20.9415 12.512 21.1247C12.5286 21.3079 12.5904 21.4842 12.6918 21.6377C12.7932 21.7912 12.9311 21.9172 13.0931 22.0043C13.2551 22.0915 13.4363 22.1371 13.6202 22.1371C13.8042 22.1371 13.9853 22.0915 14.1474 22.0043C14.3094 21.9172 14.4473 21.7912 14.5487 21.6377C14.6501 21.4842 14.7119 21.3079 14.7285 21.1247C14.7451 20.9415 14.716 20.757 14.6438 20.5878C14.5875 20.4529 14.5085 20.3287 14.4102 20.2206ZM23.3118 20.2206C23.0966 20.022 22.8146 19.9117 22.5218 19.9117C22.229 19.9117 21.947 20.022 21.7318 20.2206C21.6335 20.3287 21.5545 20.453 21.4982 20.5879C21.4114 20.7902 21.3872 21.0139 21.4288 21.2301C21.4705 21.4463 21.576 21.645 21.7318 21.8006C21.8399 21.899 21.9641 21.978 22.099 22.0343C22.2322 22.0931 22.3762 22.1234 22.5217 22.1234C22.6673 22.1234 22.8112 22.0931 22.9444 22.0343C23.0792 21.9777 23.2034 21.8987 23.3117 21.8006C23.4675 21.645 23.573 21.4463 23.6146 21.2302C23.6563 21.014 23.6322 20.7902 23.5454 20.5879C23.4892 20.453 23.4101 20.3287 23.3118 20.2206ZM26.2042 25.3449C26.992 24.717 27.5932 23.8859 27.9431 22.9412C28.2931 21.9966 28.3783 20.9743 28.1896 19.9848L26.5206 11.0831C26.2813 9.80809 25.604 8.65668 24.6057 7.82809C23.6075 6.9995 22.3511 6.54583 21.0537 6.54544H15.0882C13.7908 6.54583 12.5344 6.99956 11.5362 7.82815C10.5379 8.65674 9.8606 9.80809 9.62137 11.0832L7.95228 19.9848C7.7637 20.9744 7.84892 21.9966 8.19884 22.9413C8.54876 23.8859 9.15003 24.7171 9.93777 25.345L8.38264 26.9002C8.27778 27.0031 8.19439 27.1259 8.13725 27.2612C8.08004 27.3966 8.05026 27.542 8.04961 27.6889C8.04895 27.8358 8.07743 27.9815 8.13332 28.1174C8.18929 28.2533 8.27156 28.3768 8.37551 28.4806C8.47938 28.5846 8.60289 28.6668 8.73878 28.7228C8.87466 28.7787 9.0203 28.8072 9.16724 28.8065C9.31419 28.8059 9.45956 28.7761 9.59492 28.719C9.73035 28.6617 9.85301 28.5784 9.95597 28.4735L12.0358 26.3937C12.4876 26.5116 12.9523 26.5722 13.4191 26.5741H22.7228C23.1896 26.5722 23.6544 26.5116 24.1061 26.3937L26.1859 28.4735C26.3952 28.679 26.6772 28.7936 26.9705 28.7923C27.2639 28.791 27.5448 28.6739 27.7522 28.4664C27.9596 28.259 28.0767 27.9781 28.078 27.6847C28.0794 27.3914 27.9648 27.1094 27.7593 26.9002L26.2042 25.3449ZM11.8076 11.4939C11.9515 10.7289 12.358 10.0382 12.957 9.54097C13.556 9.04378 14.3097 8.77142 15.0882 8.77083H21.0537C21.8322 8.77142 22.586 9.04378 23.1849 9.54097C23.7839 10.0382 24.1904 10.7289 24.3343 11.4939L24.72 13.5512C23.8893 14.4965 22.8666 15.2538 21.72 15.7726C20.5734 16.2914 19.3295 16.5598 18.071 16.5598C16.8125 16.5598 15.5685 16.2914 14.4219 15.7726C13.2754 15.2538 12.2526 14.4965 11.4219 13.5512L11.8076 11.4939ZM25.2905 23.1426C24.9779 23.5204 24.5856 23.8245 24.1417 24.0331C23.6978 24.2415 23.2133 24.3493 22.7228 24.3487H13.4191C12.9287 24.3486 12.4444 24.2404 12.0005 24.0318C11.5567 23.8232 11.1642 23.5195 10.8511 23.1421C10.5379 22.7647 10.3117 22.323 10.1885 21.8483C10.0654 21.3736 10.0483 20.8776 10.1386 20.3956L10.9298 16.1758C12.9277 17.8609 15.4572 18.7852 18.071 18.7852C20.6847 18.7852 23.2142 17.8609 25.2121 16.1758L26.0033 20.3956C26.0944 20.8777 26.0777 21.374 25.9545 21.8488C25.8313 22.3238 25.6045 22.7655 25.2905 23.1426Z" fill="white"/>
</g>
<defs>
<clipPath id="clip0_224_85">
<rect width="36" height="36" fill="white"/>
</clipPath>
</defs>
</svg>
